<?xml version="1.0" standalone="no"?>
<!DOCTYPE svg PUBLIC "-//W3C//DTD SVG 20010904//EN"
 "http://www.w3.org/TR/2001/REC-SVG-20010904/DTD/svg10.dtd">
<svg version="1.0" xmlns="http://www.w3.org/2000/svg"
 width="231.000000pt" height="178.000000pt" viewBox="0 0 231.000000 178.000000"
 preserveAspectRatio="xMidYMid meet">

<g transform="translate(0.000000,178.000000) scale(0.100000,-0.100000)"
fill="#000000" stroke="none">
<path d="M945 1700 c-38 -10 -92 -26 -118 -35 -52 -19 -54 -24 -32 -90 5 -17
-6 -29 -71 -69 -87 -56 -178 -144 -235 -228 -22 -31 -39 -59 -39 -63 0 -3 -11
-28 -25 -56 -33 -69 -55 -157 -63 -249 -7 -73 -8 -75 -35 -78 -26 -3 -27 -5
-27 -68 l0 -64 -85 0 c-63 0 -85 -3 -85 -13 0 -7 11 -42 25 -77 31 -79 31 -89
0 -174 -14 -38 -25 -73 -25 -77 0 -5 91 -9 201 -9 l202 0 54 -54 c140 -142
363 -236 558 -236 195 0 416 93 555 234 l54 56 203 0 c112 0 203 4 203 9 0 4
-11 39 -25 77 -14 38 -25 78 -25 90 0 11 11 49 25 84 14 35 25 70 25 77 0 10
-22 13 -85 13 l-85 0 0 64 c0 63 -1 65 -27 68 -27 3 -28 5 -34 78 -7 86 -30
172 -65 248 -13 29 -24 55 -24 58 0 3 -17 31 -39 62 -54 80 -157 180 -235 227
-59 36 -65 43 -59 65 16 62 11 73 -42 93 -156 60 -374 75 -520 37z m300 -29
c39 -5 103 -18 143 -30 64 -20 73 -25 70 -44 -4 -26 -8 -25 -108 4 -107 32
-301 32 -413 1 -43 -12 -82 -20 -88 -17 -18 12 -9 33 19 43 117 45 241 59 377
43z m67 -107 c35 -8 73 -20 86 -27 27 -13 25 -31 -13 -112 -12 -27 -37 -81
-55 -120 -17 -38 -47 -101 -65 -140 -60 -128 -95 -206 -95 -214 0 -5 -6 -14
-14 -20 -15 -12 -27 8 -84 139 -8 19 -21 47 -29 62 -21 43 -17 68 12 68 36 0
75 42 75 80 0 38 -39 80 -73 80 -13 0 -36 -9 -50 -20 -31 -25 -46 -25 -54 -2
-3 9 -21 50 -39 90 -37 81 -40 97 -21 109 61 40 304 56 419 27z m-425 -189
c72 -166 93 -214 113 -260 98 -218 110 -247 110 -266 0 -18 -14 -19 -350 -19
l-350 0 0 68 c0 148 81 332 199 453 95 96 174 151 211 146 9 -1 36 -52 67
-122z m670 84 c60 -42 165 -146 202 -202 71 -105 121 -254 121 -359 l0 -68
-350 0 c-337 0 -350 1 -350 19 0 19 22 68 164 374 25 54 46 100 46 102 0 1 18
42 40 90 46 97 48 98 127 44z m-1058 -726 c6 -21 11 -46 11 -55 0 -35 18 -17
24 25 4 23 10 48 15 56 15 23 40 4 46 -36 4 -21 10 -49 15 -63 8 -24 8 -24 9
-3 2 43 25 113 38 113 7 0 13 -7 13 -15 0 -14 3 -14 30 0 45 23 97 19 126 -10
l26 -26 20 26 c13 16 29 25 48 25 30 0 33 -5 45 -74 8 -48 22 -37 33 25 6 34
12 44 27 44 15 0 21 -9 26 -35 3 -19 11 -46 17 -60 9 -24 10 -24 16 15 13 76
16 85 32 85 13 0 15 -7 11 -32 -16 -96 -36 -171 -48 -178 -20 -13 -38 8 -45
51 -7 41 -24 44 -24 5 0 -13 -9 -34 -20 -47 -20 -24 -20 -24 -35 -5 -8 11 -15
30 -15 42 0 13 -4 33 -9 46 -5 13 -12 35 -15 51 -8 36 -26 35 -26 -3 0 -18 -5
-30 -13 -30 -7 0 -18 -20 -25 -45 -25 -94 -125 -94 -148 0 -4 17 -15 38 -25
47 -20 20 -17 25 -39 -62 -7 -25 -17 -48 -23 -52 -17 -11 -36 10 -43 48 -9 50
-21 50 -28 0 -7 -43 -22 -61 -43 -48 -11 7 -25 51 -40 126 -11 53 -31 58 -35
10 -3 -36 -4 -37 -20 -20 -23 23 -23 37 3 70 14 17 30 26 49 26 25 0 31 -5 39
-37z m827 21 c23 -15 26 -15 43 0 9 9 30 16 44 16 l27 0 0 -104 c0 -83 -3
-105 -15 -110 -23 -8 -35 26 -37 106 -1 41 -3 56 -5 35 -4 -31 -7 -37 -22 -32
-10 3 -24 -1 -31 -10 -7 -8 -21 -15 -31 -15 -14 0 -19 -9 -21 -42 -2 -30 -8
-43 -18 -43 -12 0 -16 18 -18 88 -1 48 -7 87 -12 87 -6 0 -10 -13 -10 -30 0
-23 -4 -30 -20 -30 -15 0 -20 7 -20 29 0 59 88 92 146 55z m389 7 c2 -5 -13
-45 -35 -90 -36 -74 -38 -81 -20 -81 11 0 20 5 20 11 0 7 10 9 25 5 14 -4 25
-4 25 -2 0 2 3 12 7 22 5 13 3 16 -9 12 -8 -4 -21 -2 -29 3 -19 12 0 43 29 47
12 2 36 21 53 43 25 31 37 39 58 37 26 -3 26 -4 29 -97 2 -63 -1 -98 -10 -108
-10 -13 -14 -13 -25 3 -7 10 -13 35 -13 56 0 26 -4 38 -14 38 -19 0 -26 -22
-26 -81 0 -54 -17 -66 -43 -28 -12 17 -19 19 -35 10 -26 -14 -99 -14 -107 -1
-4 7 -12 7 -25 0 -23 -13 -90 -13 -110 0 -12 8 -8 22 25 89 40 83 42 102 6 79
-24 -15 -47 1 -38 26 5 12 28 15 131 15 69 0 128 -4 131 -8z m65 -289 c0 -16
-63 -97 -119 -152 -282 -280 -750 -280 -1032 0 -56 55 -119 136 -119 152 0 4
286 8 635 8 349 0 635 -4 635 -8z"/>
<path d="M1226 1499 c-30 -24 -32 -40 -10 -74 12 -18 25 -25 49 -25 24 0 37 7
49 25 21 33 20 42 -9 70 -29 30 -45 31 -79 4z"/>
<path d="M1036 1495 c-3 -9 1 -18 10 -22 19 -7 28 2 21 22 -8 19 -23 19 -31 0z"/>
<path d="M1211 1311 c-16 -10 -6 -31 15 -31 8 0 14 9 14 20 0 22 -7 25 -29 11z"/>
<path d="M1156 1112 c-2 -4 -1 -14 4 -22 7 -11 12 -12 21 -3 6 6 8 16 5 22 -8
13 -23 14 -30 3z"/>
<path d="M759 692 c-15 -50 -5 -95 19 -90 14 3 17 15 17 62 0 71 -18 85 -36
28z"/>
<path d="M1280 705 c0 -36 13 -47 24 -19 5 14 -9 54 -19 54 -3 0 -5 -16 -5
-35z"/>
<path d="M1546 670 c-35 -73 -34 -100 3 -66 13 12 20 13 29 4 14 -14 13 -16
51 59 36 72 36 73 16 73 -8 0 -15 -4 -15 -10 0 -14 -37 -12 -43 3 -2 6 -21
-22 -41 -63z"/>
<path d="M1805 707 c-4 -10 -5 -21 -1 -24 10 -10 18 4 13 24 -4 17 -4 17 -12
0z"/>
</g>
</svg>
